<svg width="32" height="32" xmlns="http://www.w3.org/2000/svg" version="1.0" preserveAspectRatio="xMidYMid meet">
 <g>
  <title>Layer 1</title>
  <path d="m16.21642,13.10485c-0.47477,0.20977 -0.52475,1.00224 -0.06247,1.21201c0.22489,0.09323 0.31235,0.303 0.31235,0.67593c0,0.41954 -0.13743,0.62931 -0.74964,1.09547c-0.4123,0.32631 -0.86208,0.67593 -0.99952,0.79247c-0.13743,0.09323 -0.36232,0.25639 -0.49976,0.303c-0.13743,0.06992 -0.63719,0.37293 -1.12446,0.69924c-0.47477,0.303 -1.21191,0.74585 -1.62421,0.95562c-0.4123,0.23308 -0.99952,0.55939 -1.31186,0.72254c-1.17443,0.65262 -2.01153,0.606 -3.12349,-0.11654c-2.41133,-1.60824 -3.87312,-2.6571 -4.64775,-3.37964c-0.58722,-0.53608 -0.48726,0 0.18741,1.04885c1.87409,2.93679 3.08601,5.73373 3.08601,7.10889c0,0.79247 0.22489,0.95562 0.37482,0.25639c0.06247,-0.32631 0.34983,-1.07216 0.63719,-1.63155c0.52475,-1.09547 0.54973,-1.53832 0.06247,-1.53832c-0.16242,0 -0.36232,-0.16315 -0.44978,-0.34962c-0.08746,-0.18646 -0.22489,-0.34962 -0.29985,-0.34962c-0.07496,0 -0.27487,-0.27969 -0.43729,-0.5827c-0.36232,-0.72254 -0.17491,-0.74585 0.73714,-0.09323c1.67419,1.1887 2.16145,1.21201 4.56029,0.25639c1.0245,-0.39623 4.69773,-1.32855 7.93366,-2.02778c5.02257,-1.04885 9.03312,-1.07216 9.72029,-0.06992c0.27487,0.41954 0.16242,1.14208 -0.28736,1.88794c-0.72465,1.1887 -0.6247,1.32855 0.99952,1.32855c1.27438,0 1.46179,-0.04662 1.68668,-0.46616c0.37482,-0.69924 0.29985,-1.30524 -0.28736,-2.42402c-0.64969,-1.1887 -1.67419,-2.16763 -3.21094,-3.00671c-1.68668,-0.93231 -2.31138,-1.16539 -5.30993,-2.05109c-1.037,-0.303 -5.33492,-0.48946 -5.87216,-0.25639l0,0z" id="svg_2"/>
 </g>

</svg>